<svg width="110" height="111" xmlns="http://www.w3.org/2000/svg" xmlns:xlink="http://www.w3.org/1999/xlink"><defs><path id="a" d="M0 .948h109.052V110H0z"/></defs><g fill="none" fill-rule="evenodd"><g transform="translate(0 .052)"><mask id="b" fill="#fff"><use xlink:href="#a"/></mask><path d="M51.712.948c5.06 10.54 18.718 13.455 27.64 5.898-.888 11.659 9.483 21.01 20.988 18.928-6.598 9.653-2.293 22.937 8.712 26.886-10.54 5.06-13.454 18.718-5.898 27.64-11.658-.888-21.011 9.482-18.927 20.988C74.574 94.69 61.289 98.994 57.34 110c-5.061-10.54-18.718-13.455-27.64-5.898.887-11.658-9.483-21.011-20.99-18.927 6.6-9.654 2.295-22.938-8.711-26.887 10.54-5.06 13.455-18.717 5.898-27.64 11.659.888 21.01-9.482 18.928-20.988 9.653 6.599 22.938 2.294 26.886-8.712" fill="#FF39B0" mask="url(#b)"/></g><path d="M85.128 53.946c.872 16.9-12.122 31.31-29.022 32.181-16.901.872-31.31-12.12-32.181-29.022-.872-16.9 12.12-31.309 29.022-32.18 16.9-.874 31.308 12.12 32.18 29.021" fill="#FF9E32"/></g></svg>