<?xml version="1.0" encoding="utf-8"?>
<!-- Svg Vector Icons : http://www.onlinewebfonts.com/icon -->
<!DOCTYPE svg PUBLIC "-//W3C//DTD SVG 1.1//EN" "http://www.w3.org/Graphics/SVG/1.1/DTD/svg11.dtd">
<svg version="1.1" xmlns="http://www.w3.org/2000/svg" xmlns:xlink="http://www.w3.org/1999/xlink" x="0px" y="0px" viewBox="0 0 1000 1000" enable-background="new 0 0 1000 1000" xml:space="preserve">
<metadata> Svg Vector Icons : http://www.onlinewebfonts.com/icon </metadata>
<g><path d="M910.5,2.3H89.5C45.6,2.3,10,37.9,10,81.8v836.5c0,43.9,35.6,79.5,79.5,79.5h821.1c43.9,0,79.5-35.6,79.5-79.5V81.8C990,37.9,954.4,2.3,910.5,2.3z M770.9,905.2H229.1V94.8h541.8V905.2z M73,99h95v95H73V99z M73,240.3h95v95H73V240.3L73,240.3z M73,381.6h95v95H73V381.6z M73,523h95v95H73V523z M73,664.4h95v94.9H73V664.4z M73,805.7h95v95H73V805.7z M832.7,99.3h95v95h-95V99.3z M832.7,240.7h95v95h-95V240.7z M832.7,382h95v95h-95V382L832.7,382z M832.7,523.4h95v95h-95V523.4z M832.7,664.7h95v95h-95V664.7z M832.7,806h95v95h-95V806z M380.6,347.2c0-1.3,0.9-1.8,2-1.1l264.7,152.8c1.1,0.6,1.1,1.6,0,2.3L382.6,654c-1.1,0.6-2,0.1-2-1.1V347.2z"/></g>
</svg>