<svg xmlns="http://www.w3.org/2000/svg" xmlns:xlink="http://www.w3.org/1999/xlink" aria-hidden="true" focusable="false" width="1em" height="1em" style="-ms-transform: rotate(360deg); -webkit-transform: rotate(360deg); transform: rotate(360deg);" preserveAspectRatio="xMidYMid meet" viewBox="0 0 16 16"><g fill="none"><path d="M2 4.5A2.5 2.5 0 0 1 4.5 2h7.002a2.5 2.5 0 0 1 2.5 2.5v2.501a4.996 4.996 0 0 0-1-.584V5H3v6.502a1.5 1.5 0 0 0 1.5 1.5h1.917c.156.357.353.692.584 1H4.5a2.5 2.5 0 0 1-2.5-2.5V4.5zM3.085 4h9.83A1.5 1.5 0 0 0 11.5 3h-7a1.5 1.5 0 0 0-1.415 1z" fill="#626262"/><path d="M8.002 6.499v.5a5.03 5.03 0 0 0-1 .998V7H5.004v4H6c0 .343.034.678.1 1H4.504a.5.5 0 0 1-.5-.5v-5a.5.5 0 0 1 .5-.5h2.998a.5.5 0 0 1 .5.5z" fill="#626262"/><path d="M10.318 15.097l.02.079a3.98 3.98 0 0 0 1.325 0l.019-.08a2 2 0 0 1 2.508-1.45c.279-.358.502-.765.656-1.206a2 2 0 0 1 0-2.88a4.267 4.267 0 0 0-.656-1.207a2 2 0 0 1-2.508-1.45l-.02-.079a3.983 3.983 0 0 0-1.325 0l-.019.08a2 2 0 0 1-2.508 1.45a4.266 4.266 0 0 0-.656 1.206a2 2 0 0 1 0 2.88c.154.44.377.848.656 1.207a2 2 0 0 1 2.508 1.45zM12.115 11c0 .637-.5 1.154-1.115 1.154c-.616 0-1.115-.517-1.115-1.154c0-.637.5-1.154 1.115-1.154c.616 0 1.115.517 1.115 1.154z" fill="#626262"/></g></svg>