<svg xmlns="http://www.w3.org/2000/svg" xmlns:xlink="http://www.w3.org/1999/xlink" aria-hidden="true" focusable="false" width="1em" height="1em" style="-ms-transform: rotate(360deg); -webkit-transform: rotate(360deg); transform: rotate(360deg);" preserveAspectRatio="xMidYMid meet" viewBox="0 0 24 24"><g fill="none"><path d="M15 6l2.293-2.293a1 1 0 0 1 1.414 0l1.586 1.586a1 1 0 0 1 0 1.414L18 9m-3-3l-5.707 5.707a1 1 0 0 0-.293.707V14a1 1 0 0 0 1 1h1.586a1 1 0 0 0 .707-.293L18 9m-3-3l3 3M9 5H6a2 2 0 0 0-2 2v11a2 2 0 0 0 2 2h11a2 2 0 0 0 2-2v-3" stroke="#626262" stroke-width="2" stroke-linecap="round" stroke-linejoin="round"/></g></svg>